<?xml version="1.0" encoding="UTF-8"?>
<svg id="Layer_1" data-name="Layer 1" xmlns="http://www.w3.org/2000/svg" viewBox="0 0 1080 1080">
  <defs>
    <style>
      .cls-1 {
        fill: #f6d0b4;
      }

      .cls-2 {
        fill: #e8e8fa;
      }

      .cls-3 {
        fill: #7d573b;
      }

      .cls-4 {
        fill: #9e7749;
      }

      .cls-5 {
        fill: #8d5f89;
      }

      .cls-6 {
        fill: #b487ba;
      }

      .cls-7 {
        fill: #8f8f7d;
      }

      .cls-8 {
        fill: #cfc7d9;
      }

      .cls-9 {
        fill: #afafa6;
      }

      .cls-10 {
        fill: #d69f71;
      }

      .cls-11 {
        fill: #6f6f66;
      }

      .cls-12 {
        fill: #968fb2;
      }

      .cls-13 {
        fill: #5f3f3f;
      }
    </style>
  </defs>
  <rect class="cls-13" x="327.82" y="916.75" width="35.41" height="35.41"/>
  <rect class="cls-13" x="486.82" y="686.89" width="106.3" height="35.41"/>
  <rect class="cls-13" x="363.25" y="634.09" width="70.84" height="53.06"/>
  <rect class="cls-10" x="486.82" y="439.12" width="35.42" height="88.3"/>
  <rect class="cls-10" x="557.73" y="439.12" width="35.42" height="88.64"/>
  <rect x="434.09" y="475.17" width="52.73" height="52.24"/>
  <rect x="593.14" y="475.17" width="52.73" height="52.59"/>
  <rect class="cls-2" x="645.81" y="475.17" width="35.49" height="52.59"/>
  <rect class="cls-2" x="398.61" y="475.17" width="35.47" height="52.24"/>
  <rect class="cls-4" x="363.14" y="475.17" width="35.56" height="52.24"/>
  <polygon class="cls-10" points="398.65 598.45 398.61 527.41 363.24 527.41 363.14 475.17 327.75 475.17 327.83 563.07 363.25 563.07 363.25 634.09 434.09 634.09 434.09 598.45 398.65 598.45"/>
  <polygon class="cls-10" points="752.22 475.17 716.73 475.17 716.73 527.76 681.27 527.76 681.27 598.45 645.89 598.45 645.89 634.09 681.27 634.09 692.47 634.09 716.76 634.09 716.76 563.07 752.22 563.07 752.22 475.17"/>
  <rect class="cls-4" x="681.27" y="475.17" width="35.49" height="52.59"/>
  <polygon class="cls-13" points="398.65 439.12 398.65 403.6 363.14 403.6 363.14 439.12 363.14 471.28 363.14 475.17 434.08 475.17 434.08 439.12 398.65 439.12"/>
  <polygon class="cls-13" points="716.77 403.6 681.26 403.6 681.26 439.12 645.81 439.12 645.81 475.17 716.76 475.17 716.76 471.28 716.77 471.28 716.77 403.6"/>
  <rect class="cls-13" x="645.89" y="634.09" width="70.87" height="53.06"/>
  <polygon class="cls-10" points="557.59 634.09 557.59 598.45 522.36 598.45 522.36 634.09 486.82 634.09 486.82 686.89 593.14 686.89 593.14 634.09 557.59 634.09"/>
  <polygon class="cls-6" points="593.14 881.34 593.14 793.02 486.82 793.02 486.82 881.34 434.09 881.34 434.09 916.75 645.89 916.75 645.89 881.34 593.14 881.34"/>
  <rect class="cls-12" x="363.23" y="952.16" width="70.86" height="53.51"/>
  <rect class="cls-12" x="645.88" y="952.16" width="70.86" height="53.51"/>
  <rect x="327.82" y="952.16" width="35.43" height="53.51"/>
  <rect x="239.34" y="792.74" width="35.43" height="53.51"/>
  <rect x="805.2" y="792.74" width="35.43" height="53.19"/>
  <rect class="cls-8" x="805.2" y="757.65" width="35.43" height="35.09"/>
  <rect class="cls-8" x="239.34" y="757.65" width="35.43" height="35.65"/>
  <rect class="cls-8" x="274.77" y="634.09" width="88.49" height="88.18"/>
  <rect class="cls-8" x="716.76" y="634.09" width="89.45" height="88.15"/>
  <rect x="203.9" y="686.89" width="35.43" height="106.13"/>
  <rect x="840.63" y="686.89" width="35.43" height="105.86"/>
  <rect x="239.15" y="634.09" width="35.62" height="52.79"/>
  <rect x="806.21" y="634.09" width="34.43" height="52.79"/>
  <rect x="274.77" y="598.66" width="53.06" height="35.43"/>
  <rect class="cls-13" x="327.83" y="563.07" width="35.42" height="71.03"/>
  <rect class="cls-13" x="274.77" y="439.12" width="53.07" height="123.95"/>
  <rect class="cls-11" x="327.83" y="439.12" width="35.3" height="36.05"/>
  <rect class="cls-11" x="716.76" y="438.96" width="35.38" height="36.21"/>
  <rect class="cls-10" x="716.77" y="368.52" width="35.45" height="70.44"/>
  <rect class="cls-11" x="716.77" y="315.29" width="35.45" height="53.23"/>
  <polygon class="cls-7" points="752.22 209.51 752.22 243.9 716.77 243.9 716.77 315.29 752.22 315.29 752.22 368.52 805.21 368.52 805.21 209.51 752.22 209.51"/>
  <rect class="cls-10" x="327.83" y="368.52" width="35.3" height="70.6"/>
  <rect x="274.77" y="368.52" width="53.07" height="70.6"/>
  <rect x="752.15" y="368.52" width="53.07" height="70.6"/>
  <rect class="cls-10" x="805.21" y="403.65" width="36.02" height="70.6"/>
  <rect class="cls-7" x="805.21" y="368.52" width="36.02" height="35.3"/>
  <rect x="805.21" y="209.51" width="36.02" height="159"/>
  <rect x="805.21" y="474.26" width="36.02" height="53.5"/>
  <rect class="cls-10" x="238.77" y="403.65" width="36.02" height="70.6"/>
  <rect x="202.75" y="403.65" width="36.02" height="70.6"/>
  <rect class="cls-13" x="238.77" y="368.52" width="36.02" height="35.14"/>
  <rect x="238.77" y="279.92" width="36.02" height="88.59"/>
  <rect x="202.75" y="156.05" width="36.02" height="123.87"/>
  <rect class="cls-7" x="238.77" y="243.9" width="36.02" height="36.02"/>
  <rect class="cls-11" x="327.83" y="121.01" width="35.31" height="35.04"/>
  <rect class="cls-11" x="434.08" y="85.41" width="52.87" height="35.6"/>
  <rect x="328.07" y="49.81" width="158.88" height="35.6"/>
  <rect x="486.96" y="85.41" width="158.88" height="35.6"/>
  <rect x="645.84" y="120.73" width="106.38" height="35.6"/>
  <rect x="752.22" y="156.33" width="52.99" height="53.18"/>
  <polygon points="274.77 85.33 274.77 121.01 238.77 121.01 238.77 156.05 328.07 156.05 328.07 148.46 328.07 121.01 328.07 85.33 274.77 85.33"/>
  <rect class="cls-11" x="274.77" y="243.9" width="53.31" height="36.02"/>
  <rect class="cls-7" x="274.77" y="279.92" width="53.31" height="88.59"/>
  <rect class="cls-11" x="327.83" y="315.29" width="35.3" height="53.23"/>
  <rect class="cls-11" x="363.14" y="279.92" width="70.95" height="35.22"/>
  <rect class="cls-9" x="486.9" y="315.29" width="35.45" height="52.79"/>
  <rect class="cls-1" x="486.9" y="279.83" width="35.45" height="35.45"/>
  <rect class="cls-11" x="593.14" y="279.83" width="123.58" height="35.45"/>
  <rect class="cls-11" x="238.77" y="209.45" width="36" height="34.45"/>
  <polygon class="cls-9" points="752.22 192.16 752.15 192.16 752.15 156.05 645.89 156.05 645.89 121.01 434.08 121.01 434.08 100.47 434.08 85.33 327.83 85.33 327.83 121.01 363.14 121.01 363.14 136.15 363.14 156.05 238.77 156.05 238.77 209.51 274.79 209.51 274.79 243.9 328.07 243.9 328.07 254.07 328.07 279.83 328.07 315.14 363.14 315.14 363.14 279.83 434.08 279.83 434.08 315.29 486.9 315.29 486.9 279.83 522.48 279.83 522.48 315.14 557.74 315.14 557.74 368.08 592.85 368.08 592.85 279.83 716.73 279.83 716.73 243.9 752.22 243.9 752.22 192.16"/>
  <rect x="238.77" y="474.26" width="36.02" height="53.5"/>
  <rect x="841.23" y="403.65" width="36.02" height="70.6"/>
  <rect class="cls-13" x="752.15" y="439.12" width="53.07" height="124.15"/>
  <rect class="cls-13" x="716.76" y="563.07" width="35.46" height="71.03"/>
  <rect x="752.17" y="597.51" width="54.03" height="36.58"/>
  <rect x="363.25" y="881.34" width="70.84" height="35.41"/>
  <polygon class="cls-2" points="681.31 757.65 681.31 845.94 645.89 845.94 645.89 881.34 716.73 881.34 716.73 845.94 716.73 757.65 681.31 757.65"/>
  <polygon class="cls-2" points="398.65 845.94 398.65 757.65 363.23 757.65 363.23 845.94 363.25 845.94 363.25 881.34 434.09 881.34 434.09 845.94 398.65 845.94"/>
  <g>
    <rect class="cls-2" x="398.65" y="686.89" width="35.42" height="70.77"/>
    <rect class="cls-2" x="434.09" y="722.29" width="52.73" height="123.65"/>
  </g>
  <g>
    <rect class="cls-2" x="645.89" y="686.89" width="35.42" height="70.77"/>
    <rect class="cls-2" x="593.14" y="722.29" width="52.73" height="123.65"/>
  </g>
  <rect x="645.89" y="881.34" width="70.84" height="35.41"/>
  <rect x="486.82" y="916.75" width="106.32" height="35.41"/>
  <polygon points="327.82 845.94 274.77 845.94 274.77 916.75 327.82 916.75 327.82 881.34 363.24 881.34 363.24 845.94 327.82 845.94"/>
  <polygon points="752.15 845.94 752.15 845.94 716.74 845.94 716.74 881.34 752.15 881.34 752.15 916.75 805.2 916.75 805.2 845.94 752.15 845.94"/>
  <rect x="434.09" y="952.16" width="52.73" height="53.51"/>
  <rect x="593.14" y="952.16" width="52.73" height="53.51"/>
  <rect x="363.25" y="1005.67" width="70.84" height="35.12"/>
  <rect x="645.89" y="1005.67" width="70.84" height="35.12"/>
  <rect class="cls-3" x="327.82" y="881.34" width="35.41" height="35.41"/>
  <rect class="cls-5" x="434.09" y="845.94" width="52.73" height="35.41"/>
  <rect class="cls-12" x="398.66" y="757.65" width="35.41" height="88.28"/>
  <rect class="cls-12" x="645.9" y="757.65" width="35.41" height="88.28"/>
  <rect class="cls-12" x="593.14" y="686.89" width="52.73" height="35.41"/>
  <rect class="cls-12" x="434.09" y="686.89" width="52.73" height="35.41"/>
  <rect class="cls-4" x="434.09" y="634.09" width="52.73" height="53.06"/>
  <polygon class="cls-1" points="716.82 315.24 593.08 315.29 593.08 368.08 557.74 368.08 557.74 315.29 522.36 315.29 522.36 368.08 486.9 368.08 486.9 315.29 363.25 315.29 363.25 403.6 398.65 403.6 398.65 439.12 434.09 439.12 434.09 475.17 486.82 475.17 486.82 439.12 522.32 439.12 522.32 527.41 398.65 527.41 398.65 598.45 434.09 598.45 434.09 634.09 522.36 634.09 522.36 598.45 557.62 598.45 557.62 634.09 645.89 634.09 645.89 598.45 681.31 598.45 681.31 527.41 557.62 527.41 557.62 439.12 593.08 439.12 593.08 475.17 645.81 475.17 645.81 439.12 681.31 439.12 681.31 403.6 716.82 403.56 716.82 315.24"/>
  <rect class="cls-4" x="593.08" y="634.09" width="52.73" height="53.06"/>
  <rect class="cls-12" x="363.25" y="686.89" width="35.39" height="70.77"/>
  <rect class="cls-12" x="681.3" y="687.16" width="35.46" height="70.49"/>
  <rect class="cls-12" x="806.21" y="686.89" width="34.43" height="35.36"/>
  <rect class="cls-12" x="239.15" y="686.89" width="35.62" height="35.41"/>
  <rect class="cls-2" x="239.34" y="722.25" width="88.49" height="35.41"/>
  <rect class="cls-2" x="752.17" y="722.25" width="88.46" height="35.41"/>
  <rect class="cls-12" x="716.74" y="793.02" width="35.22" height="52.92"/>
  <polygon class="cls-11" points="752.21 757.64 752.21 722.25 716.76 722.25 716.74 793.02 751.98 793.01 751.98 845.94 805.2 845.94 805.2 757.64 752.21 757.64"/>
  <polygon class="cls-11" points="363.03 722.27 328.02 722.27 328.02 757.65 274.77 757.65 274.77 845.94 328.03 845.94 328.03 793.02 363.03 793.02 363.03 722.27"/>
  <rect class="cls-12" x="328.03" y="793.02" width="35" height="52.92"/>
  <rect class="cls-5" x="593.12" y="845.94" width="52.73" height="35.41"/>
  <rect class="cls-5" x="486.82" y="722.29" width="106.32" height="70.72"/>
  <rect class="cls-13" x="716.74" y="916.75" width="35.41" height="35.41"/>
  <rect x="716.74" y="952.16" width="35.43" height="53.51"/>
  <rect class="cls-3" x="716.74" y="881.34" width="35.41" height="35.41"/>
  <rect class="cls-3" x="363.23" y="916.75" width="123.6" height="35.41"/>
  <rect class="cls-3" x="593.14" y="916.75" width="123.6" height="35.41"/>
</svg>