<?xml version="1.0" encoding="UTF-8"?>
<svg id="Layer_1" data-name="Layer 1" xmlns="http://www.w3.org/2000/svg" viewBox="0 0 2776.52 604.45">
  <defs>
    <style>
      .cls-1 {
        fill: #0075be;
      }

      .cls-2 {
        fill: #fc0;
      }
    </style>
  </defs>
  <g>
    <path class="cls-2" d="m94.84,348.39c-2.32,2.97-2.78,3.55-3.1,3.92l-12.25,14.32-8.42-16.86c-.67-1.35-8.04-16.92-20.1-42.4-7.49-15.82-15.23-32.18-16.01-33.8l-6.16-11.93,12.49-5.23c13.67-5.73,26.74-11.13,38.84-16.05,12.26-4.99,25.38-9.88,38.99-14.55,13.76-4.72,27.17-8.7,39.86-11.84,10.14-2.53,20.76-4.24,31.53-5.08,12.49-.97,21.74-1.44,28.28-1.44,2.9,0,5.25.09,7.2.29l.17.02c9.06,1.02,17.85,3.15,26.13,6.36,8.64,3.35,16.58,8.16,23.62,14.31,7.05,6.16,13.04,13.67,17.81,22.32l.05.09c2.47,4.57,3.93,9.54,4.34,14.77,1.24,15.95-5.16,34.76-19.55,57.51-13.05,20.63-26.58,39.07-40.2,54.78-10.29,11.88-18.49,21.07-24.85,27.86l40.32,108.63-62.66,53.04-96.31-219.02Zm90.42-15.64c3.22-4.29,6.67-8.98,10.33-14.07,4.19-5.83,6.87-10.19,8.58-13.37-.78.03-1.55.07-2.31.13-9.37.73-17.31,2.99-24.02,6.88l7.43,20.43Z"/>
    <path class="cls-1" d="m218.78,219.93c2.46,0,4.45.07,5.97.22,8.03.9,15.7,2.76,23.01,5.59,7.3,2.83,13.94,6.85,19.91,12.07,5.97,5.22,11,11.53,15.09,18.94,1.64,3.03,2.6,6.3,2.87,9.79,1.01,13.04-4.87,29.66-17.65,49.86-12.78,20.2-25.81,37.96-39.08,53.28-13.28,15.32-23.22,26.34-29.85,33.06l39.99,107.75-43.19,36.56-97.93-222.71c-.23.02-14.93,18.96-15.68,19.84-1.25-2.49-35.52-75.06-36.14-76.25,13.73-5.75,26.63-11.08,38.72-16.01,12.09-4.92,24.87-9.69,38.33-14.31,13.46-4.62,26.4-8.46,38.81-11.53,9.54-2.38,19.37-3.96,29.5-4.75,12.06-.94,21.16-1.4,27.32-1.4m-37.6,138.18c6.65-7.89,14.83-18.6,24.56-32.12,9.72-13.52,14.37-23.13,13.92-28.84-.17-2.21-1.2-3.42-3.09-3.62-3.5-.5-6.95-.74-10.36-.74-1.79,0-3.56.07-5.32.21-15.37,1.19-28.05,6.1-38.03,14.72l18.32,50.4m37.61-163.18v25-25c-6.88,0-16.45.48-29.26,1.48-11.46.89-22.77,2.71-33.61,5.42-13,3.22-26.77,7.31-40.87,12.14-13.84,4.75-27.17,9.73-39.64,14.8-12.09,4.92-25.2,10.34-38.96,16.1l-24.99,10.47,12.31,23.82c1.1,2.28,8.97,18.91,15.93,33.63,14.56,30.77,19.52,41.24,20.19,42.58l16.85,33.71,14.76-17.24,81.47,185.29,13.48,30.65,25.56-21.63,43.19-36.56,13.39-11.33-6.1-16.45-34.6-93.22c5.55-6.09,12.15-13.56,19.91-22.52,14.03-16.19,27.93-35.12,41.31-56.29,15.89-25.11,22.9-46.43,21.45-65.16-.54-6.99-2.49-13.63-5.8-19.75l-.05-.09-.05-.09c-5.48-9.93-12.38-18.57-20.52-25.69-8.15-7.12-17.34-12.69-27.34-16.56-9.29-3.59-19.13-5.99-29.26-7.13l-.17-.02-.17-.02c-2.35-.23-5.11-.34-8.41-.34h0Z"/>
  </g>
  <g>
    <polygon class="cls-2" points="516.28 405.51 523.87 461.93 431.56 471.36 398.68 228.62 374 236.36 380.99 175.17 472.03 127.79 492.61 266.93 511.17 227.05 588.13 265.8 546.76 340.68 622.04 388.22 634.73 476.58 516.28 405.51"/>
    <path class="cls-1" d="m462.23,146.98l24.12,163.03,30.72-65.99,53.84,27.1-40.79,73.83,80.37,50.76,8.13,56.62-118.2-70.91,9.34,69.38-67.44,6.89-33.25-245.43-20.47,6.42,4.05-35.49,69.58-36.21m19.59-38.38l-31.14,16.21-69.58,36.21-11.79,6.14-1.51,13.2-4.05,35.49-4.36,38.19,28.88-9.05,29.27,216.07,3.25,23.97,24.07-2.46,67.44-6.89,25.68-2.62-3.44-25.58-2.4-17.87,73.63,44.17,45.08,27.05-7.47-52.04-8.13-56.62-1.64-11.42-9.76-6.16-60.44-38.17,29.39-53.19,12.56-22.74-23.2-11.68-53.84-27.1-23.03-11.59-6.4,13.76-11.91-80.53-5.14-34.72h0Z"/>
  </g>
  <g>
    <path class="cls-2" d="m661.28,417.51c-9.3,0-18.1-1.01-26.16-3.01-12.41-3.08-22.51-8.72-30.02-16.77-12.04-12.8-19.03-29.84-20.76-50.62-1.3-15.62.28-31.44,4.68-47.01,4.57-16.19,10.03-27.68,16.69-35.15,4.74-5.29,9.87-10.11,15.33-14.39l-24.56-30.11,81.65-100.08,54.59,70.4-54.28,35.34c2.53-.37,5.07-.66,7.63-.87,3.38-.28,6.78-.42,10.1-.42,9.83,0,19.54,1.24,28.86,3.69,12.68,3.33,24.19,8.86,34.2,16.43l9.65,7.3-34.89,49.42,46.7,47.72-1.74,6.81c-2.78,10.92-10.25,21.11-22.19,30.29-10.69,8.22-23.7,15.14-38.67,20.57-14.8,5.36-29.98,8.71-45.1,9.97-3.99.33-7.93.5-11.71.5Zm1.43-118.93c-2.6,1.58-3.27,2.63-3.34,2.76l-.15.26-.17.26c-1.58,2.42-2.76,4.87-3.57,7.37l7.23-10.65Z"/>
    <path class="cls-1" d="m677.88,140.44l36.65,47.25-84.01,54.7-17.91-21.95,65.27-80m18.29,96.87c8.8,0,17.36,1.09,25.68,3.28,11.15,2.93,21.09,7.7,29.84,14.31l-70.18,99.42c6.9-.57,13.34-2.56,19.29-5.96,5.96-3.4,11.31-7.99,16.07-13.77,4.76-5.78,8.87-12.43,12.34-19.96l37.63,38.45c-2.08,8.17-7.98,16-17.7,23.47-9.72,7.48-21.48,13.72-35.31,18.72-13.83,5.01-27.79,8.09-41.88,9.27-3.66.3-7.22.46-10.68.46-8.32,0-16.04-.88-23.15-2.65-10.07-2.5-18.03-6.88-23.88-13.16-10.14-10.78-15.95-25.15-17.44-43.13-1.18-14.19.24-28.38,4.25-42.57,4.01-14.19,8.68-24.27,13.99-30.24,6.36-7.1,13.41-13.16,21.14-18.19,7.73-5.02,15.85-8.98,24.37-11.88,8.52-2.9,17.37-4.73,26.55-5.49,3.05-.25,6.07-.38,9.07-.38m-48.1,105.07l39.09-57.54c-4.02-1.65-8.04-2.47-12.05-2.47-.81,0-1.62.03-2.43.1-5.11.42-9.97,1.88-14.57,4.35-4.61,2.48-7.78,5.22-9.53,8.22-5.24,8.06-7.48,16.62-6.72,25.71.28,3.31.87,6.45,1.78,9.43.91,2.97,2.39,7.04,4.44,12.2m30.3-242.09l-19.87,24.35-65.27,80-12.89,15.8,12.89,15.8,10.46,12.82c-2.51,2.4-4.93,4.9-7.27,7.51l-.02.03-.02.03c-7.94,8.91-14.28,22.02-19.38,40.07-4.81,17.02-6.53,34.33-5.11,51.44,1.96,23.65,10.08,43.22,24.12,58.16,9.18,9.82,21.33,16.66,36.1,20.33,9.05,2.24,18.86,3.38,29.17,3.38,4.13,0,8.42-.18,12.75-.54,16.23-1.35,32.49-4.94,48.32-10.67,16.19-5.86,30.33-13.4,42.04-22.42,14.21-10.93,23.18-23.42,26.67-37.11l3.47-13.62-9.83-10.04-34.5-35.26,21.9-31.02,13.96-19.77-19.31-14.59c-11.32-8.55-24.29-14.79-38.55-18.54-2.94-.77-5.91-1.44-8.92-1.99l8.88-5.78,22.75-14.82-16.64-21.46-36.65-47.25-19.26-24.83h0Z"/>
  </g>
  <g>
    <path class="cls-2" d="m911.16,304.85c-.44-1.14-1.29-3.19-2.94-6.71-1.38-2.94-3.33-5.97-5.78-9-2.82,2.78-5.79,5.62-8.86,8.48-1.72,1.6-3.24,3.01-4.58,4.23l20.62,120.18-106.07,7.39-8.67-192.72c-.39.28-.73.53-1,.72l-3.07,3.12-5.28-.03c-9.02-.05-11.53-7.6-12.73-11.23-.57-1.73-1.38-4.21-2.35-7.22-1.92-5.95-4.48-13.99-7.15-22.36-4.98-15.63-11.76-36.89-13.03-40.34l-5.93-12.41,13.42-4.48c13.48-4.5,26.31-8.71,38.12-12.51,12.05-3.88,24.89-7.59,38.18-11.04,13.46-3.49,26.49-6.29,38.73-8.33,12.16-2.02,24.3-3.04,36.1-3.04h1.3c9.72.07,18.86.92,27.14,2.54,8.63,1.69,16.89,4.5,24.58,8.36,7.99,4.01,15.2,9.41,21.43,16.04,6.17,6.58,11.24,14.37,15.07,23.15,1.84,3.96,2.75,8.67,2.72,14-.05,7.5-2.18,15.55-6.34,23.92-3.62,7.28-8.4,15.02-14.22,23.01-2.86,3.93-5.9,7.95-9.09,12.03,3.11,2.87,6.07,6.43,8.86,10.67,6.36,9.67,11.06,21.11,13.98,33.99l.06.26,29.93,164.33-87.38,19.04-25.76-154.02Zm-33.78-73.41c3.14-1.66,6.17-3.96,8.84-7.29,4.29-5.35,7.25-10.56,8.35-14.67.75-2.79.45-4.09-.06-4.86-2.46-1.14-5.76-1.73-9.65-1.73-4.56,0-8.92.8-12.34,1.75l4.87,26.79Z"/>
    <path class="cls-1" d="m908.89,120.05c.41,0,.81,0,1.22,0,9,.06,17.27.83,24.82,2.3,7.55,1.48,14.67,3.9,21.37,7.26,6.7,3.36,12.67,7.84,17.92,13.42,5.24,5.59,9.51,12.17,12.79,19.75,1.1,2.3,1.63,5.22,1.61,8.77-.04,5.61-1.71,11.75-5.03,18.43-3.32,6.68-7.7,13.75-13.13,21.22-5.44,7.47-11.46,15.19-18.06,23.16,6.11.73,11.94,5.31,17.5,13.76,5.56,8.45,9.64,18.41,12.23,29.88l27.71,152.18-62.76,13.67-23.78-142.18c-.65-1.95-1.91-4.91-3.78-8.87-1.87-3.96-4.4-7.9-7.59-11.81-3.2-3.91-6.63-5.88-10.3-5.9h-.03c-.78,0-1.94.22-3.48.67-4.03,4.1-8.39,8.34-13.08,12.71-4.69,4.38-7.88,7.25-9.55,8.61l19.46,113.43-79.5,5.54-9.1-202.37h0c-.67,0-20.31,13.86-20.75,14.31-.33,0-22.56-70.92-23.88-73.68,13.47-4.49,26.14-8.65,38-12.47,11.86-3.82,24.35-7.43,37.49-10.84,13.13-3.41,25.68-6.11,37.64-8.09,11.53-1.92,22.89-2.87,34.05-2.87m-41.25,127.7c7.34-1.56,19.2-4.39,28.33-15.78,9.13-11.39,17.27-27.47,6.17-37.42-4.97-3.01-11.12-4.15-17.28-4.15-11.04,0-22.1,3.66-26.4,6.8l9.18,50.56m41.25-152.7c-12.48,0-25.31,1.08-38.15,3.21-12.62,2.1-26.02,4.98-39.82,8.56-13.53,3.52-26.61,7.3-38.87,11.24-11.86,3.82-24.73,8.04-38.25,12.55l-26.84,8.95,11.74,24.58c1.64,4.71,8.24,25.41,12.68,39.34,2.69,8.45,5.24,16.42,7.16,22.4.98,3.05,1.8,5.57,2.38,7.32.34,1.03.62,1.84.81,2.39,4.08,11.6,13.3,16.45,21.35,17.28l7.39,164.3,1.15,25.6,25.56-1.78,79.5-5.54,23.36-1.63,2.37,14.16,4.33,25.89,25.65-5.59,62.76-13.67,23.6-5.14-4.33-23.76-27.71-152.18-.1-.52-.12-.52c-3.25-14.35-8.54-27.16-15.72-38.09-1.01-1.54-2.05-3.01-3.11-4.41,1.02-1.36,2.02-2.72,2.99-4.06,6.23-8.56,11.38-16.9,15.31-24.8,5.02-10.09,7.59-19.99,7.65-29.41.04-7.13-1.24-13.58-3.82-19.2-4.4-10.05-10.24-18.99-17.35-26.58-7.24-7.72-15.63-13.99-24.93-18.66-8.71-4.37-18.05-7.54-27.78-9.45-9.06-1.77-18.97-2.7-29.48-2.77-.46,0-.92,0-1.38,0h0Z"/>
  </g>
  <g>
    <path class="cls-2" d="m1080.91,402.94c-5.21,1.59-10.51,2.67-15.85,3.23-2.87.3-5.74.45-8.54.45-5.67,0-11.26-.63-16.62-1.86-8.05-1.86-15.32-4.84-21.6-8.87l-.19-.13c-9.98-6.67-18.27-16.18-24.62-28.27-6.11-11.63-9.93-24.37-11.35-37.85-2.5-23.76,2.57-44.14,15.05-60.58,9.99-12.97,20.84-23.29,32.29-30.73,11.93-7.75,24.72-12.39,38.01-13.79,3.25-.34,5.82-.52,7.83-.56l62.99-36.69,10.71,89.59c1.2,4.76,2.12,10.14,2.73,16.02.52,4.94.76,8.8.73,11.74l11.18,89.47-82.29,13.11-.45-4.28Zm-21.02-112.67c-.14.35-.27.7-.39,1.05-.82,2.33-1.12,4.4-.92,6.32.27,2.59,1.23,5.36,6.36,8.03,2.09,1.11,4.08,1.92,6.01,2.45l-.53-5.01c-.22-.11-.44-.22-.66-.33l-.48-.25-.46-.29c-4.12-2.64-7.11-6.65-8.94-11.96Z"/>
    <path class="cls-1" d="m1128.15,207.67l8.55,71.52c1.15,4.37,2.02,9.37,2.61,15.01.52,4.96.73,8.65.65,11.07l9.79,78.39-57.34,9.14-.82-7.82c-8.99,4.83-18.27,7.75-27.84,8.76-2.45.26-4.86.39-7.24.39-4.75,0-9.35-.51-13.81-1.54-6.68-1.54-12.57-3.95-17.66-7.21-8.27-5.52-15.1-13.42-20.5-23.69-5.4-10.27-8.73-21.39-9.98-33.35-2.16-20.59,2.03-37.83,12.57-51.72,9.12-11.84,18.83-21.11,29.14-27.81,10.31-6.7,21.14-10.64,32.5-11.84,3.16-.33,5.56-.5,7.2-.5l1.13.92,51.03-29.72m-49.68,52.38c-4.64,1.09-9.11,3.07-13.43,5.95-4.32,2.87-7.93,6.1-10.84,9.69-2.91,3.59-5.07,7.42-6.5,11.5-1.43,4.08-1.94,8-1.55,11.76.82,7.77,5.15,13.71,13.01,17.81,5.84,3.09,11.57,4.63,17.21,4.63,1.07,0,2.14-.06,3.21-.17,1.28-.13,3.01-.49,5.2-1.06l-2.87-27.29c-.45.05-.89.07-1.32.07-1.8,0-3.47-.41-5.02-1.22-2.78-1.78-4.47-5.57-5.08-11.38-.88-8.37,1.78-15.13,7.97-20.27m69.99-93.13l-32.89,19.15-43.89,25.56c-1.62.1-3.44.26-5.51.48-15.27,1.6-29.91,6.9-43.51,15.74-12.64,8.21-24.53,19.49-35.33,33.52l-.05.07-.05.07c-14.47,19.06-20.36,42.42-17.52,69.45,1.58,15.07,5.86,29.32,12.71,42.36,7.33,13.96,17.01,25.01,28.74,32.85l.19.13.19.12c7.49,4.8,16.08,8.35,25.54,10.53,6.28,1.45,12.81,2.18,19.43,2.18,3.23,0,6.55-.18,9.85-.52,1.19-.13,2.39-.27,3.58-.44l.37,3.48,26.04-4.15,57.34-9.14,23.87-3.8-3-23.98-9.58-76.69c-.01-3.29-.27-7.26-.8-12.28-.64-6.14-1.6-11.83-2.84-16.96l-8.36-69.93-4.52-37.79h0Z"/>
  </g>
  <g>
    <path class="cls-2" d="m1468.58,383.29c-6.16,1.26-12.35,1.89-18.54,1.89h-.58c-9.51-.06-18.61-1.59-27.04-4.55-8.48-2.98-15.96-7.07-22.25-12.17l-.18-.15c-9.98-8.4-17.79-19.69-23.21-33.54-5.23-13.37-7.83-27.66-7.74-42.48.16-26.06,8.1-47.52,23.58-63.8,12.45-12.91,25.51-22.83,38.86-29.53,12.38-6.21,25.2-9.66,38.17-10.26l-.55-107.45,84.5-37.37,2.57,210.95c.73,5.34,1.08,11.34,1.04,17.85-.04,5.5-.24,9.74-.64,12.92l1.31,98.46-89.34,4.2.03-4.97Zm-9.92-128.34c-.95,1.33-1.76,2.7-2.45,4.14-1.27,2.65-1.9,5.06-1.91,7.39-.02,3.09.75,6.77,6.58,10.7,2.85,1.94,5.61,3.33,8.34,4.2l.05-8.16c-.43-.25-.85-.52-1.27-.8l-.45-.3-.42-.34c-4.7-3.81-7.54-9.45-8.47-16.82Z"/>
    <path class="cls-1" d="m1541.33,62.98l2.35,192.82c.73,4.94,1.07,10.54,1.03,16.81-.03,5.51-.25,9.59-.65,12.24l1.16,87.3-64.1,3.02.05-8.69c-10.31,4.14-20.69,6.21-31.15,6.21-.17,0-.33,0-.5,0-8.16-.05-15.82-1.33-22.97-3.85-7.15-2.51-13.33-5.87-18.52-10.08-8.41-7.08-14.94-16.59-19.61-28.53-4.67-11.94-6.97-24.56-6.88-37.85.14-22.88,6.86-41.3,20.14-55.27,11.47-11.89,23.27-20.88,35.41-26.98,11.99-6.01,24.21-9.02,36.66-9.02.16,0,.32,0,.49,0,3.51.02,6.17.13,7.97.33l-.58-112.07,59.69-26.4m-59.27,164.66c-5.23.63-10.39,2.26-15.48,4.89-5.1,2.63-9.46,5.73-13.09,9.32-3.63,3.59-6.48,7.53-8.55,11.84-2.07,4.31-3.12,8.55-3.14,12.72-.05,8.64,3.98,15.69,12.11,21.15,7.18,4.89,14.48,7.35,21.88,7.4.03,0,.07,0,.1,0,1.41,0,3.33-.18,5.74-.53l.19-30.33c-2.56-.02-4.84-.69-6.82-2.04-2.83-2.3-4.23-6.67-4.19-13.13.06-9.3,3.81-16.4,11.24-21.29m83.81-202.85l-34.65,15.32-59.69,26.4-14.97,6.62.08,16.37.45,87.98c-10.61,1.76-21.05,5.21-31.21,10.3-14.62,7.34-28.82,18.09-42.19,31.97l-.06.06-.06.06c-17.75,18.66-26.84,43-27.02,72.34-.1,16.41,2.79,32.26,8.6,47.11,6.18,15.82,15.2,28.79,26.8,38.55l.18.15.18.15c7.4,6,16.15,10.8,25.98,14.25,9.74,3.42,20.2,5.19,31.1,5.26h.65c1.99,0,3.97-.06,5.96-.17l-.02,3.86,26.34-1.24,64.1-3.02,24.14-1.14-.32-24.17-1.14-85.57c.39-3.55.59-7.91.63-13.48.04-6.78-.31-13.11-1.05-18.83l-2.33-191.26-.46-37.88h0Z"/>
  </g>
  <g>
    <path class="cls-2" d="m1621.82,407.9c-6.11,0-12.16-.59-17.98-1.75-9.24-1.85-17.88-5.11-25.68-9.69-7.82-4.59-14.38-10-19.5-16.07l-.17-.2c-8.2-10.15-13.72-22.71-16.4-37.34-2.59-14.12-2.43-28.65.48-43.18,5.12-25.55,16.99-45.11,35.29-58.15,14.56-10.4,29.23-17.71,43.59-21.72,8.8-2.46,17.63-3.7,26.25-3.7,5.92,0,11.87.59,17.67,1.75,8.31,1.66,16.22,4.35,23.52,7.99,7.18,3.57,14.5,8.47,21.78,14.54,7.36,6.06,13.01,13.55,16.73,22.19,3.51,8.17,5.54,17.03,6.02,26.36.46,8.89-.23,17.99-2.05,27.06-1.47,7.35-3.52,14.46-6.08,21.12-2.57,6.67-5.53,12.81-8.79,18.24-3.44,5.72-7.2,10.58-11.18,14.44-8.22,8.17-16.8,15.07-25.5,20.51-8.82,5.52-17.71,9.72-26.43,12.49-8.69,2.76-17.25,4.42-25.45,4.93-2.04.13-4.1.19-6.11.19Zm15.73-127.73c-.88.85-1.72,1.75-2.5,2.71-2.08,2.52-3.35,5.03-3.88,7.66-.65,3.26-.58,6.92,4.28,11.61,4.71,4.52,9.28,7.26,13.58,8.12,1.04.21,2.06.31,3.04.31,2.46,0,4.84-.67,7.28-2.05,1.23-.69,2.4-1.48,3.51-2.35-.43.02-.86.03-1.29.03-1.81,0-3.61-.18-5.36-.53-4.97-1-9.24-3.26-12.7-6.72l-.38-.38-.35-.41c-3.99-4.76-5.74-10.79-5.22-17.99Z"/>
    <path class="cls-1" d="m1647.7,228.59c5.13,0,10.2.5,15.22,1.51,7.26,1.45,14.06,3.76,20.4,6.92s12.78,7.47,19.33,12.95c5.9,4.86,10.32,10.71,13.26,17.54,2.94,6.83,4.61,14.19,5.02,22.06.41,7.88-.2,15.86-1.82,23.96-1.34,6.7-3.17,13.06-5.49,19.09-2.32,6.02-4.93,11.45-7.84,16.29-2.91,4.84-5.98,8.82-9.22,11.95-7.62,7.58-15.41,13.86-23.38,18.84-7.97,4.99-15.83,8.71-23.59,11.18-7.75,2.47-15.23,3.92-22.44,4.36-1.79.11-3.57.17-5.33.17-5.32,0-10.49-.5-15.53-1.51-7.91-1.58-15.18-4.32-21.81-8.22-6.63-3.89-12.05-8.34-16.28-13.35-6.91-8.55-11.52-19.13-13.83-31.74-2.31-12.61-2.17-25.43.44-38.47,4.49-22.43,14.59-39.24,30.28-50.43,13.44-9.6,26.68-16.22,39.7-19.86,7.74-2.16,15.37-3.24,22.89-3.24m4.37,94.49c4.63,0,9.11-1.22,13.43-3.67,6-3.4,11.05-8.29,15.14-14.68,4.09-6.39,6.81-12.99,8.17-19.78.93-4.65,1.23-9.05.9-13.18-3,6.76-7.67,12.31-14.01,16.65-5.15,3.53-9.86,5.29-14.14,5.29-.99,0-1.96-.09-2.91-.28-2.51-.5-4.62-1.6-6.31-3.3-2.34-2.79-2.96-6.98-1.84-12.57.86-4.28,3.12-8.23,6.8-11.85,3.68-3.62,8.83-6.02,15.46-7.21-3.13-.63-6.28-.94-9.42-.94-3.02,0-6.05.29-9.08.87-6.19,1.18-11.7,3.2-16.53,6.06-4.83,2.86-8.94,6.34-12.33,10.45-3.39,4.11-5.55,8.5-6.48,13.15-1.73,8.66.89,16.35,7.87,23.07,6.49,6.24,13.09,10.03,19.8,11.37,1.85.37,3.68.56,5.49.56m-4.37-119.49h0c-9.75,0-19.72,1.4-29.61,4.16-15.77,4.4-31.75,12.34-47.51,23.59-20.95,14.93-34.51,37.09-40.27,65.86-3.22,16.09-3.4,32.2-.52,47.89,3.06,16.71,9.45,31.15,18.97,42.94l.16.2.17.2c6.04,7.16,13.68,13.48,22.73,18.8,9.01,5.29,18.95,9.05,29.56,11.17,6.62,1.33,13.5,2,20.43,2,2.27,0,4.58-.07,6.88-.21,9.22-.57,18.8-2.42,28.47-5.49,9.71-3.09,19.56-7.73,29.27-13.81,9.46-5.92,18.76-13.39,27.62-22.19,4.74-4.61,9.16-10.3,13.15-16.93,3.63-6.05,6.91-12.84,9.73-20.17,2.82-7.32,5.07-15.12,6.68-23.17,2.02-10.09,2.79-20.24,2.27-30.16-.56-10.81-2.92-21.12-7.02-30.65-4.51-10.47-11.33-19.53-20.27-26.91-8-6.67-16.12-12.08-24.14-16.08-8.28-4.13-17.24-7.17-26.64-9.05-6.61-1.32-13.38-1.99-20.12-1.99h0Z"/>
  </g>
  <g>
    <path class="cls-2" d="m1928.57,418.77l2.91-14.11c15.86-76.76,4.51-109.75-2.59-121.8,2.82,14.28,4.35,31.98,4.55,52.98.29,29.64-2.34,58.22-4.93,67.71l-2.69,9.81-82.25-5.14.9-12.58c2-27.84,3.9-57.08,3.27-81.65-.52-20.46-2.74-32.03-4.93-38.55-.54,13.56-1.25,32.41-1.87,48.92-.96,25.61-1.87,49.81-2.32,59.5l-.56,12-95.49-.63.69-13.08c.54-10.2,12.07-162.55,12.56-169.03l.87-11.51,89.11-.39-.59,8.14c5.48-.63,10.53-.95,15.12-.95,3.6,0,7.01.19,10.14.58,10.63,1.31,20.69,4.97,29.97,10.9,11.65-2.81,23.03-4.23,33.91-4.23,32.28,0,59.38,12.78,76.31,35.98,17.98,24.64,33.34,72.93,4.45,163.07l-2.97,9.27-83.6-5.23Z"/>
    <path class="cls-1" d="m1832.39,213.8l-.75,10.35c11.14-2.14,20.72-3.22,28.73-3.22,3.11,0,5.98.16,8.62.49,10.46,1.28,20.15,5.3,29.08,12.03,12.55-3.49,24.77-5.27,36.32-5.27,65.34,0,109.2,56.86,68.85,182.73l-59.51-3.72c20.86-100.99-1.24-147.63-29.68-147.63-1.96,0-3.95.22-5.96.66,18.81,31.09,12.7,124.21,8.37,140.03l-59.51-3.72c4.73-65.88,8.99-141.8-19.46-141.8-1.93,0-4.01.35-6.26,1.08-.36.12-4.03,104.94-5.08,127.48l-70.38-.46c.54-10.18,12.54-168.75,12.54-168.75l64.07-.28m26.89-25.12l-27,.12-64.07.28-23.08.1-1.74,23.01c-.49,6.49-12.03,158.97-12.58,169.31l-1.39,26.15,26.19.17,70.38.46,5.05.03-.83,11.59,25.18,1.57,59.09,3.69-1.07,5.16,28.75,1.8,59.51,3.72,19.43,1.21,5.94-18.53c12.1-37.73,17.67-71.75,16.56-101.09-1.11-29.32-8.78-53.93-22.81-73.16-19.34-26.51-50.03-41.11-86.4-41.11-10.27,0-20.93,1.15-31.79,3.44-9.56-5.34-19.8-8.7-30.57-10.02-3.63-.45-7.56-.67-11.66-.67-.53,0-1.07,0-1.61.01l.53-7.26h0Z"/>
  </g>
  <g>
    <path class="cls-2" d="m2053.27,411.25l34.74-173.94h-29.33s27.42-62.04,27.42-62.04l114.95-20.62-48.21,273.09-99.56-16.49Zm117.73-262.68l-.41-.03c-6.54-.44-11.43-1.03-14.92-1.81-8.97-2-16.67-5.46-22.89-10.27-6.6-5.1-11.43-11.58-14.34-19.24-2.78-7.3-3.75-15.33-2.88-23.85l.08-.73.16-.72c2.53-11.33,7.73-21.46,15.47-30.09,7.68-8.57,17.76-13.1,29.16-13.1,1.98,0,4.02.14,6.08.4l.56.07.55.12c9.45,2.11,17.52,5.65,23.98,10.53,6.24,4.72,11.22,10.02,14.79,15.74,3.55,5.69,5.77,10.59,6.8,15l.08.36c1,4.94.91,10.08-.24,15.27-1.54,6.93-4.59,13.65-9.04,19.97-4.22,5.99-8.96,11.03-14.08,14.98-6.45,4.97-12.49,7.38-18.47,7.38h-.43Z"/>
    <path class="cls-1" d="m2160.43,61.24c1.44,0,2.93.1,4.46.3,7.73,1.73,14.12,4.49,19.16,8.31,5.04,3.81,8.95,7.94,11.73,12.39,2.78,4.45,4.52,8.19,5.22,11.2.65,3.23.59,6.59-.19,10.08-1.19,5.34-3.54,10.5-7.06,15.49-3.52,4.99-7.34,9.08-11.49,12.28-4.14,3.19-7.75,4.79-10.84,4.79h0c-5.86-.39-10.21-.9-13.04-1.54-7.19-1.6-13.18-4.25-17.95-7.95-4.78-3.7-8.22-8.29-10.3-13.79-2.09-5.5-2.8-11.54-2.13-18.14,2.07-9.26,6.26-17.42,12.58-24.47,5.34-5.96,11.96-8.94,19.85-8.94m25.18,108.88l-42.95,243.27-74.61-12.35,35.19-176.21h-25.39s16.97-38.42,16.97-38.42l90.78-16.29m-25.18-133.88c-15.05,0-28.36,5.97-38.47,17.26-9.18,10.24-15.36,22.26-18.36,35.71l-.32,1.44-.15,1.47c-1.07,10.48.15,20.43,3.63,29.57,3.73,9.83,9.92,18.14,18.38,24.68,3.53,2.74,7.43,5.11,11.65,7.11l-46.37,8.32-13.08,2.35-5.37,12.16-16.97,38.41-15.51,35.1h33.28s-29.22,146.32-29.22,146.32l-5.06,25.34,25.49,4.22,74.61,12.35,24.4,4.04,4.3-24.36,42.95-243.27,6.23-35.28-7.88,1.41c1.95-2.25,3.83-4.65,5.62-7.19,5.4-7.67,9.11-15.9,11.02-24.44,1.54-6.91,1.64-13.79.3-20.46l-.07-.36-.08-.36c-1.34-5.77-4.08-11.92-8.37-18.79-4.39-7.03-10.4-13.45-17.85-19.09-7.91-5.98-17.59-10.27-28.8-12.77l-1.1-.24-1.11-.15c-2.59-.34-5.18-.51-7.7-.51h0Z"/>
  </g>
  <g>
    <polygon class="cls-2" points="2110.44 473.55 2237.3 373.71 2154.93 359.11 2158.88 274.34 2427.03 326.1 2287.98 432.27 2382.94 450.11 2364.23 521.22 2110.44 473.55"/>
    <path class="cls-1" d="m2170.69,289.35l226.59,43.73-139.2,106.28,109.35,20.54-12.33,46.87-215.3-40.44,127.15-100.07-99.03-17.56,2.77-59.37m-23.63-30.02l-1.35,28.86-2.77,59.37-1.02,21.95,21.63,3.84,44.07,7.81-83.29,65.55-43.27,34.05,54.12,10.16,215.3,40.44,22.87,4.3,5.92-22.5,12.33-46.87,6.83-25.97-26.4-4.96-54.17-10.17,94.57-72.21,44.33-33.85-54.76-10.57-226.59-43.73-28.36-5.47h0Z"/>
  </g>
  <g>
    <path class="cls-2" d="m2523.67,543.49l2.57-11.95c6.31-29.38,13.59-55.44,21.63-77.46,1.35-3.71,3.3-8.51,5.95-14.67l29.51-89.29,72.57,16.68,3.81,10.04c4.04.16,7.88.36,11.5.62,6.19.44,12.02,1.1,17.33,1.96,5.73.93,11.21,2.34,16.29,4.19,10.88,3.97,19.75,10.1,26.38,18.24,7.45,8.65,13.02,17.05,16.58,24.96,4.03,8.96,5.31,19.7,3.83,31.91l-1.06,8.69-81.98,18.98-.31-15.39c-.11-5.24-1.04-10.01-2.76-14.2-.95-2.3-1.82-3.31-2.21-3.63-.65.21-2.91,1.18-6.74,5.23-4.03,4.27-10.81,14.76-20.17,40.41-5.56,15.24-11.42,33.77-17.42,55.09l-3.25,11.56-92.03-21.98Z"/>
    <path class="cls-1" d="m2591.62,364.86l54.96,12.63,4.4,11.61c7.02.14,13.46.42,19.32.84,5.86.42,11.27,1.03,16.23,1.83,4.96.8,9.63,2,14,3.59,8.83,3.22,15.85,8.06,21.08,14.51,6.74,7.82,11.67,15.17,14.76,22.06,3.09,6.89,4.03,15.32,2.82,25.28l-58.45,13.53c-.14-6.82-1.37-13.06-3.71-18.71-2.33-5.65-5.55-9.23-9.65-10.72-1.27-.46-2.57-.7-3.91-.7-4.87,0-10.21,3.06-16.01,9.19-7.09,7.52-14.7,22.42-22.84,44.72-5.7,15.61-11.6,34.27-17.71,55.99l-68.46-16.35c6.22-28.95,13.27-54.22,21.15-75.8,1.3-3.57,3.27-8.4,5.91-14.52l26.11-78.99m-16.59-29.47l-7.15,21.62-25.77,77.96c-2.64,6.15-4.6,11-5.99,14.82-8.24,22.57-15.68,49.19-22.11,79.12l-5.13,23.89,23.77,5.68,68.46,16.35,23.37,5.58,6.51-23.13c5.91-21.01,11.67-39.24,17.13-54.18,2.97-8.14,5.61-14.52,7.9-19.5l.38,18.46,30-6.95,58.45-13.53,17.06-3.95,2.12-17.39c1.76-14.51.14-27.47-4.83-38.54-4.09-9.1-10.11-18.22-18.4-27.87-8.06-9.83-18.71-17.21-31.67-21.95-5.83-2.13-12.08-3.74-18.58-4.79-5.67-.91-11.87-1.62-18.43-2.09-1.18-.08-2.38-.16-3.61-.24l-3.28-8.64-13.03-3-54.96-12.63-22.19-5.1h0Z"/>
  </g>
  <g>
    <path class="cls-2" d="m328.87,496.36c-9.42-.06-18.53-1.62-27.06-4.63-8.55-3.02-16.02-7.08-22.2-12.07l-.2-.17c-9.98-8.4-17.79-19.69-23.21-33.54-5.23-13.37-7.83-27.66-7.74-42.48.16-26.05,8.1-47.52,23.58-63.8,12.31-12.98,25.33-22.94,38.67-29.61,13.63-6.82,27.82-10.27,42.18-10.27h.57c8.48.06,16.76,1.19,24.61,3.37,7.72,2.14,15.85,5.55,24.14,10.14,8.38,4.55,15.35,10.83,20.64,18.61,5,7.35,8.68,15.67,10.93,24.73,2.14,8.64,3.19,17.7,3.14,26.96-.05,7.5-.71,14.87-1.96,21.89-1.25,7.04-2.99,13.62-5.16,19.57-2.29,6.28-5.06,11.76-8.23,16.3-6.52,9.59-13.63,18-21.13,24.99-7.61,7.1-15.54,12.92-23.57,17.29-8,4.37-16.1,7.62-24.05,9.68-7.81,2.02-15.68,3.05-23.39,3.05h-.55Zm9.13-130.08c-.71,1.01-1.35,2.05-1.94,3.13-1.56,2.88-2.33,5.57-2.35,8.26-.02,3.33.74,6.91,6.41,10.58,5.48,3.54,10.49,5.36,14.88,5.39h.11c3.68,0,6.75-1.16,9.68-3.66,1.07-.91,2.07-1.9,2.99-2.97-2.13.51-4.29.77-6.46.77h-.17c-5.06-.03-9.69-1.44-13.74-4.18l-.45-.3-.42-.34c-4.82-3.91-7.69-9.5-8.55-16.67Z"/>
    <path class="cls-1" d="m352.89,312.28c.16,0,.33,0,.49,0,7.4.05,14.52,1.02,21.34,2.91,6.82,1.89,13.97,4.91,21.44,9.03,6.72,3.65,12.17,8.55,16.35,14.7,4.18,6.15,7.23,13.05,9.13,20.7,1.9,7.66,2.82,15.61,2.77,23.87-.04,6.83-.63,13.43-1.76,19.78-1.13,6.35-2.66,12.18-4.6,17.49-1.93,5.31-4.19,9.8-6.78,13.49-6.04,8.89-12.49,16.54-19.37,22.95-6.88,6.41-13.88,11.57-21.03,15.46-7.14,3.9-14.21,6.75-21.2,8.55-6.83,1.77-13.58,2.65-20.26,2.65-.16,0-.32,0-.48,0-8.07-.05-15.73-1.36-22.97-3.92-7.25-2.56-13.42-5.9-18.52-10.01-8.41-7.08-14.94-16.59-19.61-28.53-4.67-11.94-6.97-24.56-6.88-37.85.14-22.88,6.86-41.3,20.14-55.27,11.37-11.98,23.1-21,35.2-27.05,11.94-5.97,24.13-8.95,36.59-8.95m2.23,93.85c6.66,0,12.59-2.22,17.79-6.65,5.25-4.48,9.27-10.24,12.07-17.3,2.8-7.05,4.22-14.05,4.26-20.98.03-4.75-.51-9.12-1.63-13.11-1.66,7.21-5.19,13.54-10.59,19.01-5.37,5.44-10.6,8.16-15.7,8.16-.03,0-.06,0-.09,0-2.56-.02-4.84-.69-6.82-2.04-2.83-2.3-4.23-6.29-4.2-11.99.03-4.37,1.5-8.68,4.42-12.93,2.92-4.25,7.52-7.59,13.8-10.02-.1,0-.21,0-.31,0-6.16,0-12.11,1.15-17.87,3.45-5.85,2.34-10.88,5.37-15.08,9.09-4.2,3.72-7.57,7.93-10.12,12.61-2.55,4.68-3.83,9.4-3.86,14.14-.06,8.83,3.98,15.88,12.11,21.15,7.56,4.89,14.76,7.35,21.6,7.4.06,0,.13,0,.19,0m-2.23-118.85c-16.31,0-32.39,3.9-47.77,11.59-14.64,7.32-28.83,18.15-42.15,32.2-17.73,18.64-26.82,42.98-27,72.32-.1,16.41,2.79,32.26,8.6,47.11,6.19,15.82,15.2,28.79,26.8,38.55l.2.17.2.16c7.29,5.88,16,10.63,25.89,14.13,9.85,3.48,20.32,5.28,31.14,5.34h.63c8.76,0,17.68-1.16,26.52-3.44,8.95-2.31,18-5.95,26.91-10.81,8.95-4.88,17.74-11.31,26.11-19.13,8.16-7.61,15.87-16.71,22.9-27.04,3.78-5.42,7.04-11.85,9.68-19.11,2.42-6.63,4.34-13.92,5.72-21.66,1.37-7.73,2.1-15.8,2.15-24.01.06-10.29-1.11-20.4-3.5-30.04-2.61-10.51-6.89-20.18-12.72-28.76-6.41-9.42-14.82-17-25-22.55-9.13-5.04-18.14-8.81-26.78-11.2-8.92-2.48-18.29-3.76-27.87-3.82h-.65Z"/>
  </g>
  <g>
    <path class="cls-2" d="m1299.99,401.15c.28-4.57.51-11.3.69-20,.74-35.42-3.51-65.9-12.61-90.61-.3-.78-.59-1.49-.86-2.13-1.18,1.98-2.61,4.65-4.26,8.23-1.11,2.45-2.1,5.47-2.89,8.9-.86,3.71-1.55,8-2.03,12.77-.5,4.95-.83,10.93-.97,17.78-.29,14.23.17,32.66,1.39,54.77l.66,11.99-94.22,8.96-1.4-12.17c-.98-8.52-4.08-143.36-4.69-170.3l-.26-11.5,79.93-8.49.96,8.81c7.76-2.11,15.56-4.07,20.53-5.18,7.89-1.75,15.6-2.64,22.91-2.64.64,0,1.27,0,1.9.02,11.49.24,21.78,3.08,30.6,8.45,9.65,5.8,19.5,15.03,30.07,28.19,10.84,13.51,17.39,25.93,20,37.96,4.8,21.19,7.07,40.06,6.74,56.08-.17,8.41-.92,17.35-2.2,26.57-1.24,8.87-3.13,20.37-5.62,34.19l-1.78,9.89-83.42,3.25.83-13.78Z"/>
    <path class="cls-1" d="m1302.87,222.84c.55,0,1.09,0,1.63.02,9.3.19,17.42,2.4,24.36,6.63,8.35,5.02,17.28,13.46,26.82,25.34,9.53,11.88,15.38,22.82,17.55,32.84,4.61,20.32,6.76,38.02,6.45,53.12-.17,7.97-.86,16.34-2.09,25.09-1.23,8.76-3.07,20-5.54,33.71l-59.58,2.32c.29-4.74.52-11.57.71-20.49.77-37.2-3.7-68.96-13.4-95.27-3.78-9.86-7.57-14.83-11.37-14.91-.04,0-.07,0-.11,0-4.91,0-10.47,6.72-16.69,20.16-1.49,3.29-2.74,7.06-3.72,11.32-.99,4.25-1.75,9.03-2.29,14.34-.54,5.31-.88,11.57-1.03,18.78-.3,14.62.17,33.19,1.41,55.72l-70.07,6.66c-.97-8.37-4.61-169.15-4.61-169.15l56.1-5.96,1.22,11.19c10.61-3.29,26.43-7.41,34.06-9.1,7.03-1.56,13.77-2.34,20.21-2.34m-33.33-27.24l-24.79,2.63-56.1,5.96-22.87,2.43.52,23c1.1,48.69,3.78,162.86,4.77,171.45l2.81,24.34,24.4-2.32,70.07-6.66,18.31-1.74-.8,13.28,27.6-1.08,59.58-2.32,20.07-.78,3.56-19.77c2.51-13.97,4.43-25.63,5.7-34.67,1.36-9.7,2.14-19.14,2.32-28.04.35-17.02-2.01-36.89-7.04-59.06-3.04-13.94-10.39-28.03-22.46-43.06-11.49-14.31-22.41-24.48-33.39-31.09-10.71-6.5-23.08-9.94-36.77-10.23-.72-.01-1.43-.02-2.15-.02-8.23,0-16.85.99-25.62,2.93-1.95.43-4.33.99-6.96,1.64l-.74-6.82h0Z"/>
  </g>
  <g>
    <path class="cls-2" d="m2471.31,515.46c-8.48,0-17.57-2.9-27-8.63-9.74-5.91-19.14-14.03-27.94-24.13-8.68-9.96-15.91-20.83-21.49-32.31-5.11-10.51-8.33-20.83-9.58-30.66-1.39-10.92.01-20.81,4.17-29.39,6.49-13.56,17.89-24.39,33.87-32.15,11.9-5.78,24.83-9.37,38.42-10.65,4.39-.41,8.51-.62,12.25-.62,8.4,0,15.21,1.02,20.82,3.12,8.41,3.17,16.23,7.36,23.28,12.44,7,5.05,13.3,10.9,18.73,17.37,5.42,6.47,10.07,13.67,13.83,21.41,4.96,10.21,8.1,20.9,9.33,31.75,1.25,11.06.4,21.88-2.53,32.13l-3.32,11.64-48.85-12.23-22.64,49.78-6.98.84c-1.44.17-2.91.26-4.39.26Z"/>
    <path class="cls-1" d="m2474.01,359.43c6.82,0,12.3.78,16.44,2.33,7.38,2.79,14.17,6.42,20.36,10.88,6.19,4.46,11.67,9.55,16.46,15.26,4.78,5.71,8.84,11.99,12.17,18.85,4.36,8.97,7.08,18.2,8.15,27.69,1.07,9.48.36,18.58-2.13,27.31l-97.72-24.45c2.51,5.16,5.96,9.53,10.37,13.11,4.4,3.58,9.55,6.34,15.43,8.29,5.88,1.95,12.25,3.13,19.09,3.56l-18.43,40.54c-.95.11-1.91.17-2.9.17-6.19,0-13.03-2.27-20.51-6.81-8.67-5.26-17.01-12.48-25-21.66-8-9.18-14.55-19.03-19.67-29.56-4.53-9.33-7.34-18.25-8.42-26.77-1.08-8.52-.08-15.97,3.02-22.37,5.29-11.05,14.65-19.83,28.08-26.36,10.6-5.15,21.98-8.3,34.13-9.45,4.02-.38,7.71-.57,11.08-.57m29.06,61.46c.08-4.32-.75-8.28-2.5-11.89-1.85-3.82-4.43-7.13-7.72-9.94-3.29-2.81-6.35-4.45-9.2-4.9-2.58-.54-5.1-.81-7.57-.81-4.98,0-9.74,1.1-14.28,3.31-2.47,1.2-4.72,2.6-6.74,4.19-2.02,1.59-4.72,3.95-8.09,7.08l56.1,12.97m-29.06-86.46c-4.13,0-8.65.23-13.43.68-15.09,1.42-29.46,5.41-42.71,11.85-18.56,9.02-31.92,21.81-39.68,38.01-5.2,10.78-6.98,23.01-5.29,36.35,1.42,11.19,5.03,22.81,10.74,34.54,6.06,12.46,13.9,24.26,23.31,35.06,9.66,11.08,20.04,20.03,30.88,26.6,11.42,6.93,22.68,10.44,33.48,10.44,1.97,0,3.95-.12,5.88-.35l13.95-1.68,5.82-12.79,15.42-33.9,27.01,6.76,23.48,5.88,6.64-23.27c3.37-11.84,4.36-24.27,2.93-36.96-1.39-12.27-4.92-24.32-10.5-35.81-4.21-8.66-9.42-16.72-15.49-23.98-6.1-7.28-13.16-13.83-21-19.48-7.95-5.73-16.75-10.44-26.15-13.99h-.03s-.03-.03-.03-.03c-7.04-2.64-15.28-3.92-25.21-3.92h0Z"/>
  </g>
</svg>