<?xml version="1.0" encoding="UTF-8"?>
<svg id="Layer_1" data-name="Layer 1" xmlns="http://www.w3.org/2000/svg" viewBox="0 0 1080 1080">
  <defs>
    <style>
      .cls-1 {
        fill: #fff;
      }
    </style>
  </defs>
  <path class="cls-1" d="m901.16,411.46h-226.03c2.35,4.42,4.47,8.98,6.37,13.65,7.15,17.64,10.78,36.27,10.78,55.38s-3.63,37.73-10.78,55.38c-7.41,18.28-18.29,34.67-32.33,48.71l-119.19,119.19v78.87c0,61.97,50.24,112.21,112.21,112.21h258.97c61.97,0,112.21-50.24,112.21-112.21v-258.97c0-61.97-50.24-112.21-112.21-112.21Zm-129.49,298.28c-31.25,0-56.59-25.33-56.59-56.59s25.33-56.59,56.59-56.59,56.59,25.33,56.59,56.59-25.33,56.59-56.59,56.59Z"/>
  <path class="cls-1" d="m650.07,440.8c-.96-2.55-2.02-5.08-3.18-7.57-3.49-7.52-7.85-14.72-13.09-21.47-2.86-3.69-5.99-7.24-9.37-10.62l-137.34-137.34-45.78-45.78c-3.59-3.59-7.37-6.88-11.3-9.89-1.1-.84-2.21-1.66-3.34-2.45-1.26-.89-2.52-1.75-3.81-2.58-.98-.63-1.96-1.25-2.95-1.85-1.47-.89-2.95-1.74-4.45-2.55-1.25-.68-2.5-1.34-3.77-1.96-1.65-.81-3.31-1.58-4.98-2.31-1.44-.63-2.89-1.21-4.35-1.77-3.03-1.17-6.09-2.19-9.19-3.09-1.27-.37-2.54-.71-3.82-1.03-3.13-.78-6.28-1.43-9.45-1.94-1.26-.2-2.53-.39-3.8-.55-.43-.05-.86-.11-1.28-.16-1.44-.17-2.89-.3-4.34-.41-.26-.02-.53-.04-.79-.06-1.61-.11-3.22-.19-4.84-.23-.96-.02-1.93-.04-2.89-.04-10.77,0-21.54,1.54-31.95,4.62-2.6.77-5.18,1.64-7.73,2.6-1.7.64-3.39,1.33-5.06,2.05-1.27.55-2.54,1.14-3.79,1.74-11.14,5.34-21.57,12.62-30.8,21.85l-183.12,183.12c-4.11,4.11-7.83,8.46-11.17,13-1.31,1.78-2.56,3.6-3.75,5.44-.63.98-1.25,1.96-1.85,2.95-.89,1.47-1.74,2.95-2.55,4.45-2.44,4.49-4.55,9.1-6.33,13.82-.96,2.55-1.83,5.13-2.6,7.73-2.31,7.81-3.75,15.82-4.33,23.88-.13,1.79-.21,3.58-.26,5.38-.04,1.79-.04,3.59,0,5.38.24,9.87,1.77,19.71,4.59,29.26.77,2.6,1.64,5.18,2.6,7.73,1.78,4.71,3.89,9.33,6.33,13.82.81,1.5,1.66,2.98,2.55,4.45.6.99,1.21,1.98,1.85,2.95.42.65.85,1.3,1.29,1.94,1.19,1.76,2.44,3.5,3.75,5.21,3,3.93,6.29,7.7,9.89,11.3l183.12,183.12c6.01,6.01,12.54,11.2,19.44,15.56.48.3.96.6,1.44.89,1.7,1.04,3.42,2.03,5.16,2.97,40.08,21.65,90.56,17.14,126.3-13.55,1.45-1.24,2.87-2.52,4.26-3.85.7-.66,1.39-1.34,2.07-2.02l88.68-88.68,94.44-94.44c11.64-11.64,20.19-25.2,25.64-39.66,9.63-25.52,9.63-53.84,0-79.36Zm-408.04,79.81c-22.1,22.1-57.93,22.1-80.03,0s-22.1-57.93,0-80.03,57.93-22.1,80.03,0,22.1,57.93,0,80.03Zm159.94,159.94c-22.1,22.1-57.93,22.1-80.03,0s-22.1-57.93,0-80.03,57.93-22.1,80.03,0,22.1,57.93,0,80.03Zm0-160.05c-22.1,22.1-57.93,22.1-80.03,0-22.1-22.1-22.1-57.93,0-80.03s57.93-22.1,80.03,0,22.1,57.93,0,80.03Zm0-159.83c-22.1,22.1-57.93,22.1-80.03,0s-22.1-57.93,0-80.03,57.93-22.1,80.03,0,22.1,57.93,0,80.03Zm159.83,160.05c-8.96,8.96-20.18,14.29-31.82,15.98-17.07,2.48-35.07-2.84-48.21-15.98-22.1-22.1-22.1-57.93,0-80.03,22.1-22.1,57.93-22.1,80.03,0,.79.79,1.54,1.6,2.27,2.42,19.79,22.22,19.04,56.29-2.27,77.6Z"/>
</svg>