<?xml version="1.0" encoding="UTF-8"?>
<svg id="Layer_1" data-name="Layer 1" xmlns="http://www.w3.org/2000/svg" viewBox="0 0 1036.95 1080">
  <defs>
    <style>
      .cls-1 {
        fill: #fb1b1b;
      }

      .cls-2 {
        fill: #fff;
      }
    </style>
  </defs>
  <path class="cls-1" d="m1034.77,381.31c-.08-.27-.17-.54-.25-.82C966.48,160.12,761.19,0,518.49,0S70.92,159.79,2.67,379.79c-.24.78-.48,1.56-.72,2.34-1.26,4.44-1.94,9.12-1.94,13.96,0,28.29,22.93,51.22,51.22,51.22h200.56c19.15,0,35.83-10.51,44.62-26.08.26-.48.52-.95.78-1.43,42.67-78.4,125.77-131.62,221.31-131.62s178.9,53.38,221.51,131.98c.13.24.27.49.4.73,8.62,15.55,25.08,26.13,44.05,26.41h201.28c28.29,0,51.22-22.93,51.22-51.22,0-5.14-.77-10.11-2.18-14.79Z"/>
  <path class="cls-2" d="m2.18,698.69c.08.27.17.54.25.82,68.04,220.37,273.33,380.49,516.04,380.49s447.56-159.79,515.82-379.79c.24-.78.48-1.56.72-2.34,1.26-4.44,1.94-9.12,1.94-13.96,0-28.29-22.93-51.22-51.22-51.22h-200.56c-19.15,0-35.83,10.51-44.62,26.08-.26.48-.52.95-.78,1.43-42.67,78.4-125.77,131.62-221.31,131.62s-178.9-53.38-221.51-131.98c-.13-.24-.27-.49-.4-.73-8.62-15.55-25.08-26.13-44.05-26.41H51.22c-28.29,0-51.22,22.93-51.22,51.22,0,5.14.77,10.11,2.18,14.79Z"/>
  <circle class="cls-2" cx="518.48" cy="540" r="124.62"/>
</svg>