<?xml version="1.0" encoding="UTF-8"?>
<svg id="Layer_1" data-name="Layer 1" xmlns="http://www.w3.org/2000/svg" viewBox="0 0 1080 1080">
  <defs>
    <style>
      .cls-1 {
        fill: #fff;
      }
    </style>
  </defs>
  <path class="cls-1" d="m623.67,738.8l-167.82-67.87-60.82-188.91c-2.66-8.27-10.35-13.87-19.04-13.87s-16.38,5.6-19.04,13.87l-60.82,188.91-167.82,67.87c-7.56,3.06-12.5,10.39-12.5,18.54s4.95,15.49,12.5,18.54l167.82,67.87,60.82,188.91c2.66,8.27,10.35,13.87,19.04,13.87s16.38-5.6,19.04-13.87l60.82-188.91,167.82-67.87c7.56-3.06,12.5-10.39,12.5-18.54s-4.95-15.49-12.5-18.54Z"/>
  <path class="cls-1" d="m353.34,215.1l85.14,34.43,30.99,96.24c2.66,8.27,10.35,13.87,19.04,13.87s16.38-5.6,19.04-13.87l30.99-96.24,85.14-34.43c7.56-3.06,12.5-10.39,12.5-18.54s-4.95-15.49-12.5-18.54l-85.14-34.43-30.99-96.24c-2.66-8.27-10.35-13.87-19.04-13.87s-16.38,5.6-19.04,13.87l-30.99,96.24-85.14,34.43c-7.56,3.06-12.5,10.39-12.5,18.54s4.95,15.49,12.5,18.54Z"/>
  <path class="cls-1" d="m951.69,469.61l-116.75-47.22-42.39-131.66c-2.66-8.27-10.35-13.87-19.04-13.87s-16.38,5.6-19.04,13.87l-42.39,131.66-116.75,47.22c-7.56,3.06-12.5,10.39-12.5,18.54s4.95,15.49,12.5,18.54l116.75,47.22,42.39,131.66c2.66,8.27,10.35,13.87,19.04,13.87s16.38-5.6,19.04-13.87l42.39-131.66,116.75-47.22c7.56-3.06,12.5-10.39,12.5-18.54s-4.95-15.49-12.5-18.54Z"/>
</svg>