<?xml version="1.0" encoding="UTF-8"?>
<svg id="Layer_1" data-name="Layer 1" xmlns="http://www.w3.org/2000/svg" viewBox="0 0 1080 1080">
  <defs>
    <style>
      .cls-1 {
        fill: #fff;
      }
    </style>
  </defs>
  <path class="cls-1" d="m918.59,168.94c-53.35-53.35-123.27-80.02-193.19-80.02s-139.84,26.67-193.19,80.02c-91.05,91.05-104.38,230.37-40.04,335.58l-46.29,46.29c-20.65-10.35-46.44-6.93-63.67,10.3l-247.47,247.47c-21.52,21.52-21.52,56.42,0,77.94l66.28,66.28c21.52,21.52,56.42,21.52,77.94,0l247.47-247.47c17.23-17.23,20.65-43.02,10.3-63.67l46.29-46.29c43.56,26.64,92.97,39.98,142.38,39.98,69.92,0,139.85-26.67,193.19-80.02,106.7-106.7,106.7-279.69,0-386.39Zm-56.57,329.82c-36.49,36.49-85.02,56.59-136.63,56.59s-100.13-20.1-136.63-56.59c-36.49-36.49-56.59-85.02-56.59-136.63s20.1-100.13,56.59-136.63c36.49-36.49,85.02-56.59,136.63-56.59s100.13,20.1,136.63,56.59c36.49,36.49,56.59,85.02,56.59,136.63s-20.1,100.13-56.59,136.63Z"/>
</svg>